<mxfile host="Electron" modified="2021-04-12T14:25:44.958Z" agent="5.0 (Windows NT 10.0; Win64; x64) AppleWebKit/537.36 (KHTML, like Gecko) draw.io/13.5.1 Chrome/83.0.4103.122 Electron/9.1.1 Safari/537.36" etag="SMOsjMAq8A9lRhaO8vJn" compressed="false" version="13.5.1" type="device">
  <diagram id="8PKrozTFssNcd3opiXnr" name="Page-1">
    <mxGraphModel dx="1810" dy="1610" grid="1" gridSize="1" guides="1" tooltips="1" connect="1" arrows="1" fold="1" page="1" pageScale="1" pageWidth="827" pageHeight="583" math="0" shadow="0">
      <root>
        <mxCell id="0" />
        <mxCell id="1" parent="0" />
        <mxCell id="nyZNl3e4NDNGHWrxgbAV-1" style="edgeStyle=orthogonalEdgeStyle;rounded=0;orthogonalLoop=1;jettySize=auto;html=1;exitX=1;exitY=0.5;exitDx=0;exitDy=0;entryX=0.096;entryY=0.008;entryDx=0;entryDy=0;endArrow=classic;endFill=1;targetPerimeterSpacing=0;entryPerimeter=0;" edge="1" parent="1" source="nyZNl3e4NDNGHWrxgbAV-9" target="nyZNl3e4NDNGHWrxgbAV-32">
          <mxGeometry relative="1" as="geometry">
            <Array as="points">
              <mxPoint x="372" y="186" />
            </Array>
          </mxGeometry>
        </mxCell>
        <mxCell id="nyZNl3e4NDNGHWrxgbAV-2" value="*" style="edgeLabel;html=1;align=center;verticalAlign=middle;resizable=0;points=[];labelBackgroundColor=none;" vertex="1" connectable="0" parent="nyZNl3e4NDNGHWrxgbAV-1">
          <mxGeometry x="-0.3043" y="-1" relative="1" as="geometry">
            <mxPoint x="-40" y="-4" as="offset" />
          </mxGeometry>
        </mxCell>
        <mxCell id="nyZNl3e4NDNGHWrxgbAV-3" value="*" style="edgeLabel;html=1;align=center;verticalAlign=middle;resizable=0;points=[];labelBackgroundColor=none;" vertex="1" connectable="0" parent="nyZNl3e4NDNGHWrxgbAV-1">
          <mxGeometry x="0.6348" y="1" relative="1" as="geometry">
            <mxPoint x="-10" y="-8" as="offset" />
          </mxGeometry>
        </mxCell>
        <mxCell id="nyZNl3e4NDNGHWrxgbAV-4" style="edgeStyle=orthogonalEdgeStyle;rounded=0;orthogonalLoop=1;jettySize=auto;html=1;exitX=0;exitY=0.5;exitDx=0;exitDy=0;entryX=1;entryY=0.75;entryDx=0;entryDy=0;endArrow=classic;endFill=1;" edge="1" parent="1" source="nyZNl3e4NDNGHWrxgbAV-9" target="nyZNl3e4NDNGHWrxgbAV-49">
          <mxGeometry relative="1" as="geometry">
            <Array as="points">
              <mxPoint x="123" y="186" />
              <mxPoint x="123" y="427" />
              <mxPoint x="683" y="427" />
              <mxPoint x="683" y="330" />
              <mxPoint x="623" y="330" />
            </Array>
          </mxGeometry>
        </mxCell>
        <mxCell id="nyZNl3e4NDNGHWrxgbAV-5" value="*" style="edgeLabel;html=1;align=center;verticalAlign=middle;resizable=0;points=[];labelBackgroundColor=none;" vertex="1" connectable="0" parent="nyZNl3e4NDNGHWrxgbAV-4">
          <mxGeometry x="0.9481" y="-1" relative="1" as="geometry">
            <mxPoint x="-5" y="-1" as="offset" />
          </mxGeometry>
        </mxCell>
        <mxCell id="nyZNl3e4NDNGHWrxgbAV-6" style="edgeStyle=orthogonalEdgeStyle;rounded=0;orthogonalLoop=1;jettySize=auto;html=1;exitX=0;exitY=0.25;exitDx=0;exitDy=0;entryX=1;entryY=0.75;entryDx=0;entryDy=0;endArrow=classic;endFill=1;" edge="1" parent="1" source="nyZNl3e4NDNGHWrxgbAV-9" target="nyZNl3e4NDNGHWrxgbAV-48">
          <mxGeometry relative="1" as="geometry">
            <Array as="points">
              <mxPoint x="173" y="186" />
              <mxPoint x="123" y="186" />
              <mxPoint x="123" y="427" />
              <mxPoint x="683" y="427" />
              <mxPoint x="683" y="245" />
              <mxPoint x="623" y="245" />
            </Array>
          </mxGeometry>
        </mxCell>
        <mxCell id="nyZNl3e4NDNGHWrxgbAV-7" value="1" style="edgeLabel;html=1;align=center;verticalAlign=middle;resizable=0;points=[];labelBackgroundColor=none;fontSize=8;" vertex="1" connectable="0" parent="nyZNl3e4NDNGHWrxgbAV-6">
          <mxGeometry x="-0.9743" y="-1" relative="1" as="geometry">
            <mxPoint x="-4" y="-3" as="offset" />
          </mxGeometry>
        </mxCell>
        <mxCell id="nyZNl3e4NDNGHWrxgbAV-8" value="*" style="edgeLabel;html=1;align=center;verticalAlign=middle;resizable=0;points=[];labelBackgroundColor=none;" vertex="1" connectable="0" parent="nyZNl3e4NDNGHWrxgbAV-6">
          <mxGeometry x="0.8076" relative="1" as="geometry">
            <mxPoint x="-42" y="-47" as="offset" />
          </mxGeometry>
        </mxCell>
        <mxCell id="nyZNl3e4NDNGHWrxgbAV-9" value="User" style="rounded=1;whiteSpace=wrap;html=1;" vertex="1" parent="1">
          <mxGeometry x="173" y="171" width="90" height="30" as="geometry" />
        </mxCell>
        <mxCell id="nyZNl3e4NDNGHWrxgbAV-10" style="edgeStyle=orthogonalEdgeStyle;rounded=0;orthogonalLoop=1;jettySize=auto;html=1;exitX=1;exitY=0.5;exitDx=0;exitDy=0;entryX=0.5;entryY=1;entryDx=0;entryDy=0;endArrow=classic;endFill=1;targetPerimeterSpacing=0;" edge="1" parent="1" target="nyZNl3e4NDNGHWrxgbAV-48">
          <mxGeometry relative="1" as="geometry">
            <Array as="points">
              <mxPoint x="578" y="287" />
            </Array>
            <mxPoint x="263" y="287" as="sourcePoint" />
            <mxPoint x="572.7800000000001" y="253.20000000000005" as="targetPoint" />
          </mxGeometry>
        </mxCell>
        <mxCell id="nyZNl3e4NDNGHWrxgbAV-11" value="*" style="edgeLabel;html=1;align=center;verticalAlign=middle;resizable=0;points=[];" vertex="1" connectable="0" parent="nyZNl3e4NDNGHWrxgbAV-10">
          <mxGeometry x="0.409" y="1" relative="1" as="geometry">
            <mxPoint x="71" y="-14" as="offset" />
          </mxGeometry>
        </mxCell>
        <mxCell id="nyZNl3e4NDNGHWrxgbAV-12" style="edgeStyle=orthogonalEdgeStyle;rounded=0;orthogonalLoop=1;jettySize=auto;html=1;exitX=1;exitY=0.75;exitDx=0;exitDy=0;endArrow=classic;endFill=1;entryX=0.5;entryY=0;entryDx=0;entryDy=0;" edge="1" parent="1" target="nyZNl3e4NDNGHWrxgbAV-49">
          <mxGeometry relative="1" as="geometry">
            <mxPoint x="263" y="294.5" as="sourcePoint" />
            <mxPoint x="573.2300000000001" y="310.19" as="targetPoint" />
            <Array as="points">
              <mxPoint x="263" y="287" />
              <mxPoint x="578" y="287" />
            </Array>
          </mxGeometry>
        </mxCell>
        <mxCell id="nyZNl3e4NDNGHWrxgbAV-13" value="*" style="edgeLabel;html=1;align=center;verticalAlign=middle;resizable=0;points=[];labelBackgroundColor=none;" vertex="1" connectable="0" parent="nyZNl3e4NDNGHWrxgbAV-12">
          <mxGeometry x="-0.9102" y="1" relative="1" as="geometry">
            <mxPoint as="offset" />
          </mxGeometry>
        </mxCell>
        <mxCell id="nyZNl3e4NDNGHWrxgbAV-14" value="*" style="edgeLabel;html=1;align=center;verticalAlign=middle;resizable=0;points=[];labelBackgroundColor=none;" vertex="1" connectable="0" parent="nyZNl3e4NDNGHWrxgbAV-12">
          <mxGeometry x="0.9115" relative="1" as="geometry">
            <mxPoint x="3" y="2" as="offset" />
          </mxGeometry>
        </mxCell>
        <mxCell id="nyZNl3e4NDNGHWrxgbAV-15" value="Moderator" style="rounded=1;whiteSpace=wrap;html=1;" vertex="1" parent="1">
          <mxGeometry x="173" y="272" width="90" height="30" as="geometry" />
        </mxCell>
        <mxCell id="nyZNl3e4NDNGHWrxgbAV-16" style="edgeStyle=orthogonalEdgeStyle;rounded=0;orthogonalLoop=1;jettySize=auto;html=1;exitX=0.5;exitY=0;exitDx=0;exitDy=0;entryX=0.5;entryY=1;entryDx=0;entryDy=0;endArrow=classic;endFill=1;" edge="1" parent="1" source="nyZNl3e4NDNGHWrxgbAV-22" target="nyZNl3e4NDNGHWrxgbAV-15">
          <mxGeometry relative="1" as="geometry" />
        </mxCell>
        <mxCell id="nyZNl3e4NDNGHWrxgbAV-17" value="1" style="edgeLabel;html=1;align=center;verticalAlign=middle;resizable=0;points=[];fontSize=8;labelBackgroundColor=none;" vertex="1" connectable="0" parent="nyZNl3e4NDNGHWrxgbAV-16">
          <mxGeometry x="-0.7444" y="-1" relative="1" as="geometry">
            <mxPoint x="2" as="offset" />
          </mxGeometry>
        </mxCell>
        <mxCell id="nyZNl3e4NDNGHWrxgbAV-18" value="*" style="edgeLabel;html=1;align=center;verticalAlign=middle;resizable=0;points=[];labelBackgroundColor=none;" vertex="1" connectable="0" parent="nyZNl3e4NDNGHWrxgbAV-16">
          <mxGeometry x="0.6778" y="-1" relative="1" as="geometry">
            <mxPoint x="2" y="10" as="offset" />
          </mxGeometry>
        </mxCell>
        <mxCell id="nyZNl3e4NDNGHWrxgbAV-19" style="edgeStyle=orthogonalEdgeStyle;rounded=0;orthogonalLoop=1;jettySize=auto;html=1;exitX=0;exitY=0.5;exitDx=0;exitDy=0;entryX=0;entryY=0.5;entryDx=0;entryDy=0;endArrow=classic;endFill=1;" edge="1" parent="1" source="nyZNl3e4NDNGHWrxgbAV-22" target="nyZNl3e4NDNGHWrxgbAV-38">
          <mxGeometry relative="1" as="geometry" />
        </mxCell>
        <mxCell id="nyZNl3e4NDNGHWrxgbAV-20" value="1" style="edgeLabel;html=1;align=center;verticalAlign=middle;resizable=0;points=[];fontSize=8;labelBackgroundColor=none;" vertex="1" connectable="0" parent="nyZNl3e4NDNGHWrxgbAV-19">
          <mxGeometry x="-0.9085" relative="1" as="geometry">
            <mxPoint x="-2" y="-4" as="offset" />
          </mxGeometry>
        </mxCell>
        <mxCell id="nyZNl3e4NDNGHWrxgbAV-21" value="*" style="edgeLabel;html=1;align=center;verticalAlign=middle;resizable=0;points=[];labelBackgroundColor=none;" vertex="1" connectable="0" parent="nyZNl3e4NDNGHWrxgbAV-19">
          <mxGeometry x="0.8421" y="1" relative="1" as="geometry">
            <mxPoint as="offset" />
          </mxGeometry>
        </mxCell>
        <mxCell id="nyZNl3e4NDNGHWrxgbAV-22" value="Admin" style="rounded=1;whiteSpace=wrap;html=1;" vertex="1" parent="1">
          <mxGeometry x="173" y="367" width="90" height="30" as="geometry" />
        </mxCell>
        <mxCell id="nyZNl3e4NDNGHWrxgbAV-23" style="edgeStyle=orthogonalEdgeStyle;rounded=0;orthogonalLoop=1;jettySize=auto;html=1;exitX=0.547;exitY=0.007;exitDx=0;exitDy=0;endArrow=classic;endFill=1;targetPerimeterSpacing=0;exitPerimeter=0;entryX=0.5;entryY=1;entryDx=0;entryDy=0;" edge="1" parent="1" source="nyZNl3e4NDNGHWrxgbAV-32" target="nyZNl3e4NDNGHWrxgbAV-47">
          <mxGeometry relative="1" as="geometry">
            <mxPoint x="413" y="187" as="targetPoint" />
            <Array as="points">
              <mxPoint x="413" y="217" />
            </Array>
          </mxGeometry>
        </mxCell>
        <mxCell id="nyZNl3e4NDNGHWrxgbAV-24" value="*" style="edgeLabel;html=1;align=center;verticalAlign=middle;resizable=0;points=[];labelBackgroundColor=none;" vertex="1" connectable="0" parent="nyZNl3e4NDNGHWrxgbAV-23">
          <mxGeometry x="0.8539" y="1" relative="1" as="geometry">
            <mxPoint x="5" y="11" as="offset" />
          </mxGeometry>
        </mxCell>
        <mxCell id="nyZNl3e4NDNGHWrxgbAV-25" value="*" style="edgeLabel;html=1;align=center;verticalAlign=middle;resizable=0;points=[];" vertex="1" connectable="0" parent="nyZNl3e4NDNGHWrxgbAV-23">
          <mxGeometry x="-0.4003" relative="1" as="geometry">
            <mxPoint y="30" as="offset" />
          </mxGeometry>
        </mxCell>
        <mxCell id="nyZNl3e4NDNGHWrxgbAV-26" value="*" style="edgeLabel;html=1;align=center;verticalAlign=middle;resizable=0;points=[];" vertex="1" connectable="0" parent="nyZNl3e4NDNGHWrxgbAV-23">
          <mxGeometry x="-0.6704" y="-2" relative="1" as="geometry">
            <mxPoint x="2" as="offset" />
          </mxGeometry>
        </mxCell>
        <mxCell id="nyZNl3e4NDNGHWrxgbAV-27" style="edgeStyle=orthogonalEdgeStyle;rounded=0;orthogonalLoop=1;jettySize=auto;html=1;exitX=1;exitY=0.5;exitDx=0;exitDy=0;entryX=0;entryY=0.5;entryDx=0;entryDy=0;endArrow=classic;endFill=1;targetPerimeterSpacing=0;" edge="1" parent="1" source="nyZNl3e4NDNGHWrxgbAV-32" target="nyZNl3e4NDNGHWrxgbAV-48">
          <mxGeometry relative="1" as="geometry" />
        </mxCell>
        <mxCell id="nyZNl3e4NDNGHWrxgbAV-28" value="1" style="edgeLabel;html=1;align=center;verticalAlign=middle;resizable=0;points=[];labelBackgroundColor=none;fontSize=8;" vertex="1" connectable="0" parent="nyZNl3e4NDNGHWrxgbAV-27">
          <mxGeometry x="-0.8246" y="-1" relative="1" as="geometry">
            <mxPoint x="1" y="-5" as="offset" />
          </mxGeometry>
        </mxCell>
        <mxCell id="nyZNl3e4NDNGHWrxgbAV-29" value="*" style="edgeLabel;html=1;align=center;verticalAlign=middle;resizable=0;points=[];labelBackgroundColor=none;" vertex="1" connectable="0" parent="nyZNl3e4NDNGHWrxgbAV-27">
          <mxGeometry x="0.8158" y="1" relative="1" as="geometry">
            <mxPoint x="-9" y="-1" as="offset" />
          </mxGeometry>
        </mxCell>
        <mxCell id="nyZNl3e4NDNGHWrxgbAV-30" style="edgeStyle=orthogonalEdgeStyle;rounded=0;orthogonalLoop=1;jettySize=auto;html=1;entryX=0;entryY=0.5;entryDx=0;entryDy=0;endArrow=classic;endFill=1;targetPerimeterSpacing=0;" edge="1" parent="1" target="nyZNl3e4NDNGHWrxgbAV-49">
          <mxGeometry relative="1" as="geometry">
            <mxPoint x="463" y="237" as="sourcePoint" />
            <Array as="points">
              <mxPoint x="503" y="237" />
              <mxPoint x="503" y="323" />
            </Array>
          </mxGeometry>
        </mxCell>
        <mxCell id="nyZNl3e4NDNGHWrxgbAV-31" value="*" style="edgeLabel;html=1;align=center;verticalAlign=middle;resizable=0;points=[];labelBackgroundColor=none;" vertex="1" connectable="0" parent="nyZNl3e4NDNGHWrxgbAV-30">
          <mxGeometry x="0.9108" relative="1" as="geometry">
            <mxPoint x="-10" y="-3" as="offset" />
          </mxGeometry>
        </mxCell>
        <mxCell id="nyZNl3e4NDNGHWrxgbAV-32" value="Route" style="whiteSpace=wrap;html=1;" vertex="1" parent="1">
          <mxGeometry x="363" y="217" width="94" height="40" as="geometry" />
        </mxCell>
        <mxCell id="nyZNl3e4NDNGHWrxgbAV-33" style="edgeStyle=orthogonalEdgeStyle;rounded=0;orthogonalLoop=1;jettySize=auto;html=1;exitX=1;exitY=0.5;exitDx=0;exitDy=0;endArrow=classic;endFill=1;" edge="1" parent="1" source="nyZNl3e4NDNGHWrxgbAV-38">
          <mxGeometry relative="1" as="geometry">
            <Array as="points">
              <mxPoint x="363" y="237" />
            </Array>
            <mxPoint x="363" y="237" as="targetPoint" />
          </mxGeometry>
        </mxCell>
        <mxCell id="nyZNl3e4NDNGHWrxgbAV-34" value="*" style="edgeLabel;html=1;align=center;verticalAlign=middle;resizable=0;points=[];labelBackgroundColor=none;" vertex="1" connectable="0" parent="nyZNl3e4NDNGHWrxgbAV-33">
          <mxGeometry x="0.7778" relative="1" as="geometry">
            <mxPoint x="-9" as="offset" />
          </mxGeometry>
        </mxCell>
        <mxCell id="nyZNl3e4NDNGHWrxgbAV-35" style="edgeStyle=orthogonalEdgeStyle;rounded=0;orthogonalLoop=1;jettySize=auto;html=1;exitX=1;exitY=0.5;exitDx=0;exitDy=0;entryX=0;entryY=0.5;entryDx=0;entryDy=0;endArrow=classic;endFill=1;" edge="1" parent="1" source="nyZNl3e4NDNGHWrxgbAV-38" target="nyZNl3e4NDNGHWrxgbAV-47">
          <mxGeometry relative="1" as="geometry">
            <Array as="points">
              <mxPoint x="333" y="237" />
              <mxPoint x="333" y="147" />
            </Array>
          </mxGeometry>
        </mxCell>
        <mxCell id="nyZNl3e4NDNGHWrxgbAV-36" value="*" style="edgeLabel;html=1;align=center;verticalAlign=middle;resizable=0;points=[];labelBackgroundColor=none;" vertex="1" connectable="0" parent="nyZNl3e4NDNGHWrxgbAV-35">
          <mxGeometry x="0.8786" y="1" relative="1" as="geometry">
            <mxPoint x="-4" as="offset" />
          </mxGeometry>
        </mxCell>
        <mxCell id="nyZNl3e4NDNGHWrxgbAV-37" value="1" style="edgeLabel;html=1;align=center;verticalAlign=middle;resizable=0;points=[];labelBackgroundColor=none;fontSize=8;" vertex="1" connectable="0" parent="nyZNl3e4NDNGHWrxgbAV-35">
          <mxGeometry x="-0.9605" relative="1" as="geometry">
            <mxPoint x="2" y="-5" as="offset" />
          </mxGeometry>
        </mxCell>
        <mxCell id="nyZNl3e4NDNGHWrxgbAV-38" value="Content Creator" style="rounded=1;whiteSpace=wrap;html=1;" vertex="1" parent="1">
          <mxGeometry x="173" y="222" width="90" height="30" as="geometry" />
        </mxCell>
        <mxCell id="nyZNl3e4NDNGHWrxgbAV-39" value="&lt;font style=&quot;font-size: 8px&quot;&gt;takes&lt;/font&gt;" style="text;html=1;align=center;verticalAlign=middle;resizable=0;points=[];autosize=1;strokeColor=none;" vertex="1" parent="1">
          <mxGeometry x="293" y="169" width="30" height="20" as="geometry" />
        </mxCell>
        <mxCell id="nyZNl3e4NDNGHWrxgbAV-40" value="&lt;font style=&quot;font-size: 8px&quot;&gt;creates&lt;/font&gt;" style="text;html=1;align=center;verticalAlign=middle;resizable=0;points=[];autosize=1;strokeColor=none;" vertex="1" parent="1">
          <mxGeometry x="288" y="220" width="40" height="20" as="geometry" />
        </mxCell>
        <mxCell id="nyZNl3e4NDNGHWrxgbAV-41" value="&lt;font style=&quot;font-size: 8px&quot;&gt;checks&lt;/font&gt;" style="text;html=1;align=center;verticalAlign=middle;resizable=0;points=[];autosize=1;strokeColor=none;" vertex="1" parent="1">
          <mxGeometry x="288" y="270" width="40" height="20" as="geometry" />
        </mxCell>
        <mxCell id="nyZNl3e4NDNGHWrxgbAV-42" style="edgeStyle=orthogonalEdgeStyle;rounded=0;orthogonalLoop=1;jettySize=auto;html=1;exitX=1;exitY=0.75;exitDx=0;exitDy=0;entryX=1;entryY=0.25;entryDx=0;entryDy=0;endArrow=classic;endFill=1;" edge="1" parent="1" source="nyZNl3e4NDNGHWrxgbAV-47" target="nyZNl3e4NDNGHWrxgbAV-48">
          <mxGeometry relative="1" as="geometry">
            <Array as="points">
              <mxPoint x="458" y="147" />
              <mxPoint x="653" y="147" />
              <mxPoint x="653" y="230" />
              <mxPoint x="623" y="230" />
            </Array>
          </mxGeometry>
        </mxCell>
        <mxCell id="nyZNl3e4NDNGHWrxgbAV-43" value="*" style="edgeLabel;html=1;align=center;verticalAlign=middle;resizable=0;points=[];fontSize=11;labelBackgroundColor=none;" vertex="1" connectable="0" parent="nyZNl3e4NDNGHWrxgbAV-42">
          <mxGeometry x="0.7067" relative="1" as="geometry">
            <mxPoint x="-12" y="14" as="offset" />
          </mxGeometry>
        </mxCell>
        <mxCell id="nyZNl3e4NDNGHWrxgbAV-44" style="edgeStyle=orthogonalEdgeStyle;rounded=0;orthogonalLoop=1;jettySize=auto;html=1;exitX=1;exitY=0.5;exitDx=0;exitDy=0;entryX=1.001;entryY=0.336;entryDx=0;entryDy=0;endArrow=classic;endFill=1;entryPerimeter=0;" edge="1" parent="1" source="nyZNl3e4NDNGHWrxgbAV-47" target="nyZNl3e4NDNGHWrxgbAV-49">
          <mxGeometry relative="1" as="geometry">
            <Array as="points">
              <mxPoint x="653" y="147" />
              <mxPoint x="653" y="318" />
            </Array>
          </mxGeometry>
        </mxCell>
        <mxCell id="nyZNl3e4NDNGHWrxgbAV-45" value="1" style="edgeLabel;html=1;align=center;verticalAlign=middle;resizable=0;points=[];labelBackgroundColor=none;fontSize=8;" vertex="1" connectable="0" parent="nyZNl3e4NDNGHWrxgbAV-44">
          <mxGeometry x="-0.8331" relative="1" as="geometry">
            <mxPoint x="-24" y="-5" as="offset" />
          </mxGeometry>
        </mxCell>
        <mxCell id="nyZNl3e4NDNGHWrxgbAV-46" value="*" style="edgeLabel;html=1;align=center;verticalAlign=middle;resizable=0;points=[];labelBackgroundColor=none;" vertex="1" connectable="0" parent="nyZNl3e4NDNGHWrxgbAV-44">
          <mxGeometry x="0.8331" relative="1" as="geometry">
            <mxPoint x="-9" y="-1" as="offset" />
          </mxGeometry>
        </mxCell>
        <mxCell id="nyZNl3e4NDNGHWrxgbAV-47" value="PoI" style="rounded=0;whiteSpace=wrap;html=1;" vertex="1" parent="1">
          <mxGeometry x="368" y="132" width="90" height="30" as="geometry" />
        </mxCell>
        <mxCell id="nyZNl3e4NDNGHWrxgbAV-48" value="Review" style="rounded=0;whiteSpace=wrap;html=1;" vertex="1" parent="1">
          <mxGeometry x="533" y="222" width="90" height="30" as="geometry" />
        </mxCell>
        <mxCell id="nyZNl3e4NDNGHWrxgbAV-49" value="Comment" style="rounded=0;whiteSpace=wrap;html=1;" vertex="1" parent="1">
          <mxGeometry x="533" y="308" width="90" height="30" as="geometry" />
        </mxCell>
        <mxCell id="nyZNl3e4NDNGHWrxgbAV-50" value="&lt;font style=&quot;font-size: 8px&quot;&gt;consists of&lt;/font&gt;" style="text;html=1;align=center;verticalAlign=middle;resizable=0;points=[];autosize=1;strokeColor=none;" vertex="1" parent="1">
          <mxGeometry x="408" y="181" width="50" height="20" as="geometry" />
        </mxCell>
        <mxCell id="nyZNl3e4NDNGHWrxgbAV-51" value="&lt;font style=&quot;font-size: 8px&quot;&gt;has&lt;/font&gt;" style="text;html=1;align=center;verticalAlign=middle;resizable=0;points=[];autosize=1;strokeColor=none;" vertex="1" parent="1">
          <mxGeometry x="472" y="220" width="30" height="20" as="geometry" />
        </mxCell>
        <mxCell id="nyZNl3e4NDNGHWrxgbAV-52" value="&lt;font style=&quot;font-size: 8px&quot;&gt;has&lt;/font&gt;" style="text;html=1;align=center;verticalAlign=middle;resizable=0;points=[];autosize=1;strokeColor=none;" vertex="1" parent="1">
          <mxGeometry x="472" y="130" width="30" height="20" as="geometry" />
        </mxCell>
        <mxCell id="nyZNl3e4NDNGHWrxgbAV-53" value="&lt;font style=&quot;font-size: 8px&quot;&gt;validates&lt;/font&gt;" style="text;html=1;align=center;verticalAlign=middle;resizable=0;points=[];autosize=1;strokeColor=none;" vertex="1" parent="1">
          <mxGeometry x="211" y="327" width="50" height="20" as="geometry" />
        </mxCell>
        <mxCell id="nyZNl3e4NDNGHWrxgbAV-54" value="&lt;font style=&quot;font-size: 8px&quot;&gt;gives&lt;/font&gt;" style="text;html=1;align=center;verticalAlign=middle;resizable=0;points=[];autosize=1;strokeColor=none;" vertex="1" parent="1">
          <mxGeometry x="368" y="409" width="30" height="20" as="geometry" />
        </mxCell>
        <mxCell id="nyZNl3e4NDNGHWrxgbAV-55" value="&lt;font style=&quot;font-size: 8px&quot;&gt;validates&lt;/font&gt;" style="text;html=1;align=center;verticalAlign=middle;resizable=0;points=[];autosize=1;strokeColor=none;" vertex="1" parent="1">
          <mxGeometry x="144" y="311" width="50" height="20" as="geometry" />
        </mxCell>
        <mxCell id="nyZNl3e4NDNGHWrxgbAV-56" value="&lt;font style=&quot;font-size: 25px&quot;&gt;Domänenmodell&lt;/font&gt;" style="text;html=1;align=center;verticalAlign=middle;resizable=0;points=[];autosize=1;strokeColor=none;fontSize=8;" vertex="1" parent="1">
          <mxGeometry x="302" y="60" width="200" height="20" as="geometry" />
        </mxCell>
      </root>
    </mxGraphModel>
  </diagram>
</mxfile>
